<mxfile host="app.diagrams.net" modified="2024-02-06T04:47:10.680Z" agent="Mozilla/5.0 (Windows NT 6.1; Win64; x64) AppleWebKit/537.36 (KHTML, like Gecko) Chrome/101.0.4951.54 Safari/537.36" version="23.1.1" etag="8-ypUUX5owqFY_lX6nkZ" type="github">
  <diagram name="Страница — 1" id="VtQHADYOYF_0IbvSoN6j">
    <mxGraphModel>
      <root>
        <mxCell id="0" />
        <mxCell id="1" parent="0" />
      </root>
    </mxGraphModel>
  </diagram>
</mxfile>
